<?xml version="1.0" encoding="utf-8"?>
<!-- Generator: Adobe Illustrator 26.3.1, SVG Export Plug-In . SVG Version: 6.00 Build 0)  -->
<svg version="1.1" id="Слой_1" xmlns="http://www.w3.org/2000/svg" xmlns:xlink="http://www.w3.org/1999/xlink" x="0px" y="0px"
	 viewBox="0 0 3000 2000" style="enable-background:new 0 0 3000 2000;" xml:space="preserve">
<g>
	<g id="XMLID_00000119113922375520050270000008171114841851109511_">
		<g>
			<path d="M1560.34,691.53c13.5,26.97,18.43,60.66,2.67,87.9c-14.33,27.04-44.83,44.2-74.97,42.39l-1.18-0.07l1.02-0.59
				c22.74-12.1,27.81-37.67,16.66-59.82c-9.07-19.67-22.02-37.24-36.94-52.84c-7.28-7.96-13.99-16.71-18.22-26.77
				c-22.83-52.7,7.89-109.36,42.66-148.85l14.33-16.89l-10.08,19.76c-14.38,27.04-4.66,58.08,15.24,79.78
				C1530.93,638.37,1548.02,663.94,1560.34,691.53z"/>
			<path d="M1472.06,742.69c10.9,16.14,28.15,34.41,22.02,55.46c-5.49,14.97-23.06,22.04-37.69,24.71
				c-6.47,0.86-13.04-0.93-19.24-2.55l3.55-0.9c23.6-8.98,12.5-44.4,2.49-60.36c-17.02-19.92-23.6-51.5-4.57-72.8
				C1446.08,706.92,1459.08,725.01,1472.06,742.69z"/>
		</g>
		<g>
		</g>
	</g>
	<g>
		<g>
			<g>
				<g>
					<path d="M1323.84,883.89c-109.48-29.4-231.58,18.57-336.94-23.25c-2.58-1.03-5.32-2.12-8.06-1.65
						c-2.21,0.38-4.1,1.74-5.91,3.06c-37.06,27.1-74.12,54.2-111.18,81.3c23.79-2.79,101.78,0.53,123.16,1.52
						c41.6,1.93,83.13,5.29,124.5,10.06c83.31,9.61,165.96,24.96,247.17,45.93c45.58,11.76,90.06,29.01,135.52,40.27
						C1466.73,965.24,1400.72,904.54,1323.84,883.89z"/>
					<path d="M1359.48,887.96c-61.31-25.44-128.87-31.25-195.24-32.65c-45.14-0.95-94.15-1.24-129.74-29.02
						c16.73-1.92,33.13-6.68,48.3-13.99c6.3,10.48,18.57,15.65,30.3,19.11c57.65,17.01,119.75,8.69,178.93,19.24
						c76.94,13.72,147.31,60.88,189.26,126.81c7.76,12.2,15.29,27.77,18.65,45.04c-11.32-26.72-36.97-59.86-49.77-73.32
						C1424.87,922.56,1393.33,902.01,1359.48,887.96z"/>
					<path d="M1314.52,831.7c-29.37-6.28-61.46-6.9-91.31-10.22c-14.54-1.62-29.15-3.6-43.01-8.27
						c-13.86-4.67-27.06-12.21-36.46-23.42c12.01,1.31,24.36-0.51,35.48-5.24c1.25,5.32,5.19,9.61,9.42,13.07
						c11.67,9.54,26.41,14.63,41.24,17.34c14.83,2.71,29.96,3.22,44.97,4.63c39.18,3.69,78.91,14.2,111.86,36.38
						c9.19,6.19,28.67,22.48,36.2,30.63C1390.16,858.42,1350.33,839.37,1314.52,831.7z"/>
					<g>
						<path d="M1499.94,1067.34c0,0-261.43-100.71-656.45-101.83l-36.93,26.86C806.57,992.36,1136.95,961.03,1499.94,1067.34z"/>
					</g>
				</g>
				<g>
					<path d="M1676.05,884.54c109.48-29.4,231.58,18.57,336.94-23.25c2.58-1.03,5.32-2.12,8.06-1.65c2.21,0.38,4.1,1.74,5.91,3.06
						c37.06,27.1,74.12,54.2,111.18,81.3c-23.79-2.79-101.78,0.53-123.16,1.52c-41.6,1.93-83.13,5.29-124.5,10.06
						c-83.31,9.61-165.96,24.96-247.17,45.93c-45.58,11.76-90.06,29.01-135.52,40.27C1533.16,965.89,1599.17,905.19,1676.05,884.54z
						"/>
					<path d="M1640.4,888.61c61.31-25.44,128.87-31.25,195.24-32.65c45.14-0.95,94.15-1.24,129.74-29.02
						c-16.73-1.92-33.13-6.68-48.3-13.99c-6.3,10.48-18.57,15.65-30.3,19.11c-57.65,17.01-119.75,8.69-178.93,19.24
						c-76.94,13.72-147.31,60.88-189.26,126.81c-7.76,12.2-15.29,27.77-18.65,45.04c11.32-26.72,36.97-59.86,49.77-73.32
						C1575.02,923.2,1606.56,902.66,1640.4,888.61z"/>
					<path d="M1685.37,832.35c29.37-6.28,61.46-6.9,91.31-10.22c14.54-1.62,29.15-3.6,43.01-8.27
						c13.86-4.67,27.06-12.21,36.46-23.42c-12.01,1.31-24.36-0.51-35.48-5.24c-1.25,5.32-5.19,9.61-9.43,13.07
						c-11.67,9.54-26.41,14.63-41.24,17.34c-14.83,2.71-29.96,3.22-44.97,4.63c-39.18,3.69-78.91,14.2-111.86,36.38
						c-9.19,6.19-28.67,22.48-36.2,30.63C1609.73,859.07,1649.56,840.01,1685.37,832.35z"/>
					<g>
						<path d="M1499.94,1067.98c0,0,261.43-100.71,656.45-101.83l36.93,26.86C2193.32,993.01,1862.94,961.67,1499.94,1067.98z"/>
					</g>
				</g>
			</g>
			<path d="M991.98,1008.66c0,0,283.92,6.41,507.97,75.28v32.04C1499.94,1115.98,1379.61,1053.51,991.98,1008.66z"/>
			<path d="M2007.91,1008.66c0,0-283.92,6.41-507.97,75.28v32.04C1499.94,1115.98,1620.28,1053.51,2007.91,1008.66z"/>
		</g>
	</g>
	<g>
		<rect x="621.97" y="1141.91" width="1755.95" height="16.96"/>
	</g>
	<g>
		<rect x="621.97" y="1467.04" width="1755.95" height="16.96"/>
	</g>
	<path d="M626.4,1184.58h104.23v72.19H693.8v-37.94h-30.57v54.51c21.11,0,38.54,5.71,52.3,17.12
		c13.75,11.42,20.62,29.16,20.62,53.22l-0.37,7.73l-5.52,88.76H626.4V1184.58z M695.64,1405.92l3.68-54.51
		c1.96-29.22-10.07-43.83-36.09-43.83v98.34H695.64z"/>
	<path d="M808.83,1184.58h36.83v100.91l36.46-30.94v-69.98h36.46v255.6h-36.46v-140.69l-36.46,30.94v109.75h-36.83V1184.58z"/>
	<path d="M991.26,1184.58h104.23v72.19h-36.83v-37.94h-30.57v54.51c21.11,0,38.54,5.71,52.3,17.12
		c13.75,11.42,20.62,29.16,20.62,53.22l-0.37,7.73l-5.52,88.76H991.26V1184.58z M1060.5,1405.92l3.68-54.51
		c1.96-29.22-10.07-43.83-36.09-43.83v98.34H1060.5z"/>
	<path d="M1356.11,1184.58h36.83v100.91l36.46-30.94v-69.98h36.46v255.6h-36.46v-140.69l-36.46,30.94v109.75h-36.83V1184.58z"/>
	<path d="M1550.88,1198.57c9.58-10.56,23.81-15.84,42.72-15.84c18.66,0,32.78,5.34,42.35,16.02c9.58,10.68,14.12,25.23,13.63,43.64
		l-4.42,146.58c-0.98,16.45-5.65,29.41-14,38.86c-8.35,9.45-20.87,14.18-37.56,14.18c-16.94,0-29.71-4.73-38.3-14.18
		c-8.6-9.45-13.14-22.4-13.63-38.86l-4.42-146.58C1536.76,1223.75,1541.3,1209.13,1550.88,1198.57z M1577.77,1384.19
		c0.49,8.35,1.9,14.36,4.24,18.05c2.33,3.68,6.2,5.52,11.6,5.52c5.4,0,9.21-1.84,11.42-5.52c2.21-3.68,3.56-9.7,4.05-18.05
		l3.68-136.64c0-10.31-1.42-17.98-4.24-23.02c-2.83-5.03-7.8-7.55-14.92-7.55c-7.12,0-12.15,2.58-15.1,7.73
		c-2.95,5.16-4.42,12.77-4.42,22.84L1577.77,1384.19z"/>
	<path d="M1702.92,1184.58h145.85v72.19h-36.46v-37.94h-18.05v221.35h-36.83v-221.35h-18.05v37.94h-36.46V1184.58z"/>
	<path d="M1905.79,1234.67c0-16.45,4.66-28.91,14-37.38c9.33-8.47,21.85-12.71,37.56-12.71h53.4v72.19h-36.83v-37.94h-13.99
		c-11.54,0-17.31,6.02-17.31,18.05v40.14h47.88v34.25h-47.88v94.65h30.57v-49.72h36.83v83.97h-77.24
		c-14.9,0-26.98-12.08-26.98-26.99V1234.67z"/>
	<path d="M2083.43,1184.58h36.83v85.44c3.68,0.25,8.96,0.86,15.84,1.84l14.36-87.29h47.51v34.25h-18.41l-12.15,65.93
		c17.92,13.5,26.02,34.62,24.31,63.34l-5.52,92.07h-36.83l5.89-92.07l0.37-6.26c0-12.28-2.95-21.36-8.84-27.25
		c-5.89-5.89-14.73-9.21-26.52-9.94v135.53h-36.83V1184.58z"/>
	<g>
		<path d="M1173.71,1258.41c-0.49-14.49,2.76-27.2,9.76-38.12c7-10.93,17.18-19.4,30.57-25.41c13.38-6.02,29.15-9.02,47.33-9.02
			h22.1v255.6h-36.83V1220.1c-10.07,0-18.66,3.92-25.78,11.79c-7.12,7.86-10.68,16.82-10.68,26.89l5.89,182.31h-36.46
			L1173.71,1258.41z"/>
	</g>
	<path d="M2355.93,1185.85c-18.17,0-33.95,3-47.33,9.02c-13.38,6.02-23.57,14.48-30.57,25.41c-7,10.92-10.25,23.63-9.76,38.12
		l5.89,182.67h36.46l-3.26-100.98h33.83v101.35h36.83v-255.6H2355.93z M2306.22,1304.5l-1.48-45.73c0-10.07,3.56-19.03,10.68-26.89
		c7.12-7.86,15.71-11.79,25.78-11.79v84.4H2306.22z"/>
</g>
</svg>
